<svg id="Layer_1" data-name="Layer 1" xmlns="http://www.w3.org/2000/svg" xmlns:xlink="http://www.w3.org/1999/xlink" viewBox="0 0 862.78 1020.04"><defs><style>.cls-1{fill:#a01915;}.cls-2{fill:#fff;}.cls-3{fill:url(#linear-gradient);}.cls-4{fill:url(#linear-gradient-2);}.cls-5{fill:url(#linear-gradient-3);}.cls-6{fill:url(#linear-gradient-4);}.cls-7{fill:url(#linear-gradient-5);}.cls-8{fill:url(#linear-gradient-6);}.cls-9{fill:url(#linear-gradient-7);}.cls-10{fill:url(#linear-gradient-8);}.cls-11{fill:url(#linear-gradient-9);}.cls-12{fill:url(#linear-gradient-10);}.cls-13{fill:url(#linear-gradient-11);}.cls-14{fill:url(#linear-gradient-12);}</style><linearGradient id="linear-gradient" x1="3081.11" y1="1531" x2="2847.93" y2="1531" gradientUnits="userSpaceOnUse"><stop offset="0" stop-color="#a29f9f"/><stop offset="1" stop-color="#726e70"/></linearGradient><linearGradient id="linear-gradient-2" x1="2378.78" y1="1525.41" x2="2780.56" y2="1552.08" xlink:href="#linear-gradient"/><linearGradient id="linear-gradient-3" x1="2380.39" y1="1501.15" x2="2782.17" y2="1527.81" xlink:href="#linear-gradient"/><linearGradient id="linear-gradient-4" x1="3064.99" y1="1497" x2="2831.8" y2="1497" gradientUnits="userSpaceOnUse"><stop offset="0" stop-color="#565656"/><stop offset="1" stop-color="#111"/></linearGradient><linearGradient id="linear-gradient-5" x1="2362.65" y1="1491.41" x2="2764.43" y2="1518.08" xlink:href="#linear-gradient-4"/><linearGradient id="linear-gradient-6" x1="2364.26" y1="1467.15" x2="2766.04" y2="1493.81" xlink:href="#linear-gradient-4"/><linearGradient id="linear-gradient-7" x1="3097.24" y1="1565" x2="2864.05" y2="1565" xlink:href="#linear-gradient"/><linearGradient id="linear-gradient-8" x1="2394.9" y1="1559.41" x2="2796.68" y2="1586.08" xlink:href="#linear-gradient"/><linearGradient id="linear-gradient-9" x1="2396.51" y1="1535.15" x2="2798.29" y2="1561.81" xlink:href="#linear-gradient"/><linearGradient id="linear-gradient-10" x1="3081.11" y1="1531" x2="2847.93" y2="1531" xlink:href="#linear-gradient-4"/><linearGradient id="linear-gradient-11" x1="2378.78" y1="1525.41" x2="2780.56" y2="1552.08" xlink:href="#linear-gradient-4"/><linearGradient id="linear-gradient-12" x1="2380.39" y1="1501.15" x2="2782.17" y2="1527.81" xlink:href="#linear-gradient-4"/></defs><title>favicon</title><rect class="cls-1" width="850.39" height="850.39" rx="64.77"/><path class="cls-2" d="M3066,1139.81H2864.05V1990.2h105.33a13.33,13.33,0,0,0,13.33-13.33V1694.78a8.44,8.44,0,0,1,8.44-8.44H3066a31.27,31.27,0,0,0,31.26-31.26h0v-484A31.26,31.26,0,0,0,3066,1139.81Z" transform="translate(-2250.59 -1004.16)"/><path class="cls-2" d="M2450.94,1363.57,2377,1981l99.29-98.6a78.76,78.76,0,0,0,22.7-46.52l74.74-624.22,7.5-62.67-77.6,92.69A233.18,233.18,0,0,0,2450.94,1363.57Z" transform="translate(-2250.59 -1004.16)"/><path class="cls-2" d="M2642.45,1173.53v642.29c0,7,6.36,12.73,14.21,12.73H2716c7.85,0,14.21-5.7,14.21-12.73V1211.66H2798v746.89a31.65,31.65,0,0,0,31.64,31.64h34.45V1139.8H2676.18A33.73,33.73,0,0,0,2642.45,1173.53Z" transform="translate(-2250.59 -1004.16)"/><path class="cls-3" d="M3049.85,1105.81H2847.93V1956.2h105.33a13.32,13.32,0,0,0,13.32-13.33V1660.78a8.44,8.44,0,0,1,8.45-8.44h74.82a31.26,31.26,0,0,0,31.26-31.26h0v-484A31.25,31.25,0,0,0,3049.85,1105.81Z" transform="translate(-2250.59 -1004.16)"/><path class="cls-4" d="M2434.81,1329.57,2360.89,1947l99.29-98.6a78.76,78.76,0,0,0,22.7-46.52l74.73-624.22,7.5-62.67-77.59,92.69A233.27,233.27,0,0,0,2434.81,1329.57Z" transform="translate(-2250.59 -1004.16)"/><path class="cls-5" d="M2626.33,1139.53v642.29c0,7,6.36,12.73,14.21,12.73h59.38c7.85,0,14.21-5.7,14.21-12.73V1177.66h67.7v746.89a31.67,31.67,0,0,0,31.65,31.64h34.45V1105.8H2660.06A33.73,33.73,0,0,0,2626.33,1139.53Z" transform="translate(-2250.59 -1004.16)"/><path class="cls-6" d="M3033.73,1071.81H2831.8V1922.2h105.33a13.33,13.33,0,0,0,13.33-13.33V1626.78a8.44,8.44,0,0,1,8.44-8.44h74.83a31.27,31.27,0,0,0,31.26-31.26h0v-484A31.26,31.26,0,0,0,3033.73,1071.81Z" transform="translate(-2250.59 -1004.16)"/><path class="cls-7" d="M2418.69,1295.57,2344.76,1913l99.29-98.6a78.76,78.76,0,0,0,22.7-46.52l74.74-624.22L2549,1081l-77.6,92.69A233.18,233.18,0,0,0,2418.69,1295.57Z" transform="translate(-2250.59 -1004.16)"/><path class="cls-8" d="M2610.2,1105.53v642.29c0,7,6.36,12.73,14.21,12.73h59.38c7.85,0,14.21-5.7,14.21-12.73V1143.66h67.71v746.89a31.65,31.65,0,0,0,31.64,31.64h34.45V1071.8H2643.93A33.73,33.73,0,0,0,2610.2,1105.53Z" transform="translate(-2250.59 -1004.16)"/><path class="cls-2" d="M3082.11,1173.81H2880.18V2024.2h105.33a13.33,13.33,0,0,0,13.33-13.33V1728.78a8.44,8.44,0,0,1,8.44-8.44h74.83a31.27,31.27,0,0,0,31.26-31.26h0v-484A31.26,31.26,0,0,0,3082.11,1173.81Z" transform="translate(-2250.59 -1004.16)"/><path class="cls-2" d="M2467.07,1397.57,2393.14,2015l99.29-98.6a78.76,78.76,0,0,0,22.7-46.52l74.74-624.22,7.5-62.67-77.6,92.69A233.18,233.18,0,0,0,2467.07,1397.57Z" transform="translate(-2250.59 -1004.16)"/><path class="cls-2" d="M2658.58,1207.53v642.29c0,7,6.36,12.73,14.21,12.73h59.38c7.85,0,14.21-5.7,14.21-12.73V1245.66h67.71v746.89a31.65,31.65,0,0,0,31.64,31.64h34.45V1173.8H2692.31A33.73,33.73,0,0,0,2658.58,1207.53Z" transform="translate(-2250.59 -1004.16)"/><path class="cls-9" d="M3066,1139.81H2864.05V1990.2h105.33a13.33,13.33,0,0,0,13.33-13.33V1694.78a8.44,8.44,0,0,1,8.44-8.44H3066a31.27,31.27,0,0,0,31.26-31.26h0v-484A31.26,31.26,0,0,0,3066,1139.81Z" transform="translate(-2250.59 -1004.16)"/><path class="cls-10" d="M2450.94,1363.57,2377,1981l99.29-98.6a78.76,78.76,0,0,0,22.7-46.52l74.74-624.22,7.5-62.67-77.6,92.69A233.18,233.18,0,0,0,2450.94,1363.57Z" transform="translate(-2250.59 -1004.16)"/><path class="cls-11" d="M2642.45,1173.53v642.29c0,7,6.36,12.73,14.21,12.73H2716c7.85,0,14.21-5.7,14.21-12.73V1211.66H2798v746.89a31.65,31.65,0,0,0,31.64,31.64h34.45V1139.8H2676.18A33.73,33.73,0,0,0,2642.45,1173.53Z" transform="translate(-2250.59 -1004.16)"/><path class="cls-12" d="M3049.85,1105.81H2847.93V1956.2h105.33a13.32,13.32,0,0,0,13.32-13.33V1660.78a8.44,8.44,0,0,1,8.45-8.44h74.82a31.26,31.26,0,0,0,31.26-31.26h0v-484A31.25,31.25,0,0,0,3049.85,1105.81Z" transform="translate(-2250.59 -1004.16)"/><path class="cls-13" d="M2434.81,1329.57,2360.89,1947l99.29-98.6a78.76,78.76,0,0,0,22.7-46.52l74.73-624.22,7.5-62.67-77.59,92.69A233.27,233.27,0,0,0,2434.81,1329.57Z" transform="translate(-2250.59 -1004.16)"/><path class="cls-14" d="M2626.33,1139.53v642.29c0,7,6.36,12.73,14.21,12.73h59.38c7.85,0,14.21-5.7,14.21-12.73V1177.66h67.7v746.89a31.67,31.67,0,0,0,31.65,31.64h34.45V1105.8H2660.06A33.73,33.73,0,0,0,2626.33,1139.53Z" transform="translate(-2250.59 -1004.16)"/></svg>